HIERARCHY
ROOT joint_Root
{
	OFFSET 0.0 0.0 0.0
	CHANNELS 6 Xposition Yposition Zposition Zrotation Xrotation Yrotation 
	JOINT Hips
	{
		OFFSET -17.1583 93.1646 452.98
		CHANNELS 6 Xposition Yposition Zposition Zrotation Xrotation Yrotation 
		JOINT Spine
		{
			OFFSET 15.7357 0.0 0.0
			CHANNELS 6 Xposition Yposition Zposition Zrotation Xrotation Yrotation 
			JOINT Chest
			{
				OFFSET 8.98455 -0.406207 0.0
				CHANNELS 6 Xposition Yposition Zposition Zrotation Xrotation Yrotation 
				JOINT Neck
				{
					OFFSET 16.3773 0.0 0.0
					CHANNELS 6 Xposition Yposition Zposition Zrotation Xrotation Yrotation 
					JOINT Head
					{
						OFFSET 6.45672 0.0 0.0
						CHANNELS 6 Xposition Yposition Zposition Zrotation Xrotation Yrotation 
						End Site
						{
							OFFSET 0.0 0.0 0.0
						}
					}
				}
				JOINT Shoulder_L
				{
					OFFSET 12.9942 -0.242716 4.98039
					CHANNELS 6 Xposition Yposition Zposition Zrotation Xrotation Yrotation 
					JOINT UpperArm_L
					{
						OFFSET 5.34809 0.0 0.0
						CHANNELS 6 Xposition Yposition Zposition Zrotation Xrotation Yrotation 
						JOINT LowerArm_L
						{
							OFFSET 24.3286 1.87007e-05 0.0
							CHANNELS 6 Xposition Yposition Zposition Zrotation Xrotation Yrotation 
							JOINT Hand_L
							{
								OFFSET 22.2916 0.0 0.0
								CHANNELS 6 Xposition Yposition Zposition Zrotation Xrotation Yrotation 
								End Site
								{
									OFFSET 0.0 0.0 0.0
								}
							}
						}
					}
				}
				JOINT Shoulder_R
				{
					OFFSET 12.9945 -0.242716 -4.98039
					CHANNELS 6 Xposition Yposition Zposition Zrotation Xrotation Yrotation 
					JOINT UpperArm_R
					{
						OFFSET -5.34813 0.0 0.0
						CHANNELS 6 Xposition Yposition Zposition Zrotation Xrotation Yrotation 
						JOINT LowerArm_R
						{
							OFFSET -24.3289 0.000322201 0.0
							CHANNELS 6 Xposition Yposition Zposition Zrotation Xrotation Yrotation 
							JOINT Hand_R
							{
								OFFSET -22.2915 -0.000108084 0.0
								CHANNELS 6 Xposition Yposition Zposition Zrotation Xrotation Yrotation 
								End Site
								{
									OFFSET 0.0 0.0 0.0
								}
							}
						}
					}
				}
			}
		}
		JOINT UpperLeg_L
		{
			OFFSET -2.19248 -6.46944 0.0
			CHANNELS 6 Xposition Yposition Zposition Zrotation Xrotation Yrotation 
			JOINT LowerLeg_L
			{
				OFFSET 39.0811 0.0 -1.23785e-05
				CHANNELS 6 Xposition Yposition Zposition Zrotation Xrotation Yrotation 
				JOINT Foot_L
				{
					OFFSET 40.9854 0.0 -1.26872e-05
					CHANNELS 6 Xposition Yposition Zposition Zrotation Xrotation Yrotation 
					JOINT Toes_L
					{
						OFFSET 11.7543 0.0 0.0
						CHANNELS 6 Xposition Yposition Zposition Zrotation Xrotation Yrotation 
						End Site
						{
							OFFSET 0.0 0.0 0.0
						}
					}
				}
			}
		}
		JOINT UpperLeg_R
		{
			OFFSET -2.19251 6.46944 0.0
			CHANNELS 6 Xposition Yposition Zposition Zrotation Xrotation Yrotation 
			JOINT LowerLeg_R
			{
				OFFSET -39.0811 -0.00228153 -0.0401928
				CHANNELS 6 Xposition Yposition Zposition Zrotation Xrotation Yrotation 
				JOINT Foot_R
				{
					OFFSET -40.9854 0.0 0.0
					CHANNELS 6 Xposition Yposition Zposition Zrotation Xrotation Yrotation 
					JOINT Toes_R
					{
						OFFSET -11.7543 0.0 0.0
						CHANNELS 6 Xposition Yposition Zposition Zrotation Xrotation Yrotation 
						End Site
						{
							OFFSET 0.0 0.0 0.0
						}
					}
				}
			}
		}
	}
}
MOTION
Frames:	9
Frame Time:	0.0333333
0.000000 0.000000 0.000000 0.000000 0.000000 -0.000000 192.522000 91.288200 -132.555000 89.779800 -0.823767 -0.824891 15.735700 0.000005 -0.000001 56.142200 85.887000 -54.788600 8.984550 -0.406207 -0.000000 -0.877995 -4.684130 2.671220 16.377300 -0.000001 -0.000001 2.524860 3.968330 -0.356786 6.456720 -0.000001 -0.000000 8.283910 7.664930 -5.051570 12.994200 -0.242716 4.980390 -92.490800 8.100090 -72.843100 5.348090 -0.000007 -0.000001 -75.254800 -15.649600 -8.538590 24.328600 0.000019 0.000005 36.098400 15.475400 -69.900800 22.291600 -0.000001 0.000005 53.122600 4.139350 22.212300 12.994500 -0.242716 -4.980390 89.793900 0.637333 -72.076900 -5.348130 -0.000001 -0.000004 -62.935400 -8.180080 11.497200 -24.328900 0.000322 -0.000009 0.761430 4.922870 -8.815660 -22.291500 -0.000108 -0.000004 47.094200 5.350520 -1.393750 -2.192480 -6.469440 -0.000000 -179.449000 -2.534310 9.495050 39.081100 -0.000007 -0.000012 0.001341 -0.004433 16.832100 40.985400 -0.000006 -0.000013 -0.955802 16.787500 -70.510300 11.754300 -0.000000 0.000003 0.000537 0.009592 -16.188000 -2.192510 6.469440 -0.000001 179.646000 -8.828290 154.671000 -39.081100 -0.002282 -0.040193 0.007369 -0.030926 7.417020 -40.985400 0.000008 0.000006 -4.038090 -7.501400 -61.332800 -11.754300 -0.000006 -0.000006 -0.001619 0.191513 -8.803900
0.000000 0.000000 0.000000 0.000000 0.000000 -0.000000 192.264000 90.627100 -128.928000 89.512900 -0.080334 -1.249760 15.735700 0.000005 -0.000001 52.645200 85.871200 -51.169600 8.984550 -0.406207 -0.000000 -1.134870 -5.123830 2.900790 16.377300 -0.000001 -0.000001 1.967610 3.888850 -0.352437 6.456720 -0.000001 -0.000000 7.858510 7.620790 -5.084490 12.994200 -0.242716 4.980390 -92.505600 8.227290 -72.997100 5.348090 -0.000007 -0.000001 -75.464200 -14.832900 -7.139300 24.328600 0.000019 0.000005 35.207300 16.477200 -68.101000 22.291600 -0.000001 0.000005 53.306300 4.143610 22.149500 12.994500 -0.242716 -4.980390 89.707000 0.898931 -71.948300 -5.348130 -0.000001 -0.000004 -62.343000 -8.765730 11.359200 -24.328900 0.000322 -0.000009 0.715677 4.863930 -8.392750 -22.291500 -0.000108 -0.000004 47.544600 5.344740 -1.220120 -2.192480 -6.469440 -0.000000 -178.888000 -1.995550 10.192800 39.081100 -0.000007 -0.000012 0.000467 -0.001355 19.029400 40.985400 -0.000006 -0.000013 -0.438391 16.937200 -70.787000 11.754300 -0.000000 0.000003 -0.004012 -0.051573 -18.674700 -2.192510 6.469440 -0.000001 -179.536000 -7.668560 154.272000 -39.081100 -0.002282 -0.040193 0.009094 -0.038460 8.507440 -40.985400 0.000008 0.000006 -4.474300 -7.951210 -61.559700 -11.754300 -0.000006 -0.000006 -0.001315 0.187459 -8.968720
0.000000 0.000000 0.000000 0.000000 0.000000 -0.000000 191.851000 90.220100 -125.049000 88.649600 0.678766 -2.832660 15.735700 0.000005 -0.000001 44.991000 86.351200 -43.135100 8.984550 -0.406207 -0.000000 -2.522150 -5.325790 3.596510 16.377300 -0.000001 -0.000001 1.751030 3.642810 -0.461019 6.456720 -0.000001 -0.000000 7.851100 7.463930 -5.276620 12.994200 -0.242716 4.980390 -92.629200 8.727690 -73.162500 5.348090 -0.000007 -0.000001 -74.932600 -12.926000 -5.051060 24.328600 0.000019 0.000005 33.667900 18.451300 -64.583700 22.291600 -0.000001 0.000005 53.364600 4.157010 21.951600 12.994500 -0.242716 -4.980390 89.565400 1.316670 -71.732500 -5.348130 -0.000001 -0.000004 -61.846700 -9.381740 11.500000 -24.328900 0.000322 -0.000009 0.699676 4.754780 -8.393760 -22.291500 -0.000108 -0.000004 47.668000 5.347220 -1.294320 -2.192480 -6.469440 -0.000000 -177.470000 -2.258040 9.242500 39.081100 -0.000007 -0.000012 0.004155 -0.010386 21.805400 40.985400 -0.000006 -0.000013 0.482816 17.382000 -69.330200 11.754300 -0.000000 0.000003 -0.022180 -0.179089 -23.898100 -2.192510 6.469440 -0.000001 -178.241000 -6.706090 151.103000 -39.081100 -0.002282 -0.040193 0.012865 -0.037461 14.277900 -40.985400 0.000008 0.000006 -5.130020 -9.147050 -58.681300 -11.754300 -0.000006 -0.000006 0.000090 0.166132 -9.835160
0.000000 0.000000 0.000000 0.000000 0.000000 -0.000000 191.392000 90.006100 -120.823000 87.257400 1.254910 -4.410110 15.735700 0.000005 -0.000001 34.914600 87.023000 -32.476000 8.984550 -0.406207 -0.000000 -4.252940 -5.134080 4.691570 16.377300 -0.000001 -0.000001 1.771230 3.323400 -0.601980 6.456720 -0.000001 -0.000000 8.191280 7.008150 -5.649790 12.994200 -0.242716 4.980390 -92.846400 9.444100 -73.142500 5.348090 -0.000007 -0.000001 -74.222300 -10.166800 -2.655720 24.328600 0.000019 0.000005 32.234300 21.855500 -59.445500 22.291600 -0.000001 0.000005 53.553500 4.162790 21.865600 12.994500 -0.242716 -4.980390 89.436600 1.691220 -71.572200 -5.348130 -0.000001 -0.000004 -61.732000 -9.384670 11.883200 -24.328900 0.000322 -0.000009 0.595301 3.989750 -8.507620 -22.291500 -0.000108 -0.000004 47.454500 5.347160 -1.292550 -2.192480 -6.469440 -0.000000 -175.589000 -2.509880 7.703990 39.081100 -0.000007 -0.000012 0.011037 -0.023471 25.185200 40.985400 -0.000006 -0.000013 0.776026 17.627200 -65.147500 11.754300 -0.000000 0.000003 -0.075472 -0.379096 -32.297000 -2.192510 6.469440 -0.000001 -176.191000 -6.384980 148.593000 -39.081100 -0.002282 -0.040193 0.013808 -0.029839 19.361700 -40.985400 0.000008 0.000006 -3.771010 -8.842140 -55.315900 -11.754300 -0.000006 -0.000006 -0.002351 0.200701 -8.430270
0.000000 0.000000 0.000000 0.000000 0.000000 -0.000000 190.963000 89.897600 -116.170000 85.534000 0.850188 -4.824440 15.735700 0.000005 -0.000001 32.221600 87.558200 -29.172200 8.984550 -0.406207 -0.000000 -5.043870 -4.467660 5.909570 16.377300 -0.000001 -0.000001 1.537020 3.360280 -0.686034 6.456720 -0.000001 -0.000000 8.411320 6.644320 -5.880180 12.994200 -0.242716 4.980390 -92.834600 9.292330 -72.952600 5.348090 -0.000007 -0.000001 -74.911500 -7.813410 -0.679224 24.328600 0.000019 0.000005 28.375400 25.169500 -51.777900 22.291600 -0.000001 0.000005 53.054800 4.225520 20.926200 12.994500 -0.242716 -4.980390 89.398100 1.806930 -71.572900 -5.348130 -0.000001 -0.000004 -62.874900 -8.141810 10.915100 -24.328900 0.000322 -0.000009 0.449689 3.406870 -7.538860 -22.291500 -0.000108 -0.000004 47.021000 5.348680 -1.337980 -2.192480 -6.469440 -0.000000 -173.740000 -2.893970 6.590820 39.081100 -0.000007 -0.000012 0.019294 -0.033880 29.659500 40.985400 -0.000006 -0.000013 0.164109 17.073800 -58.064500 11.754300 -0.000000 0.000003 -0.158391 -0.571054 -40.782300 -2.192510 6.469440 -0.000001 -174.134000 -8.166920 147.603000 -39.081100 -0.002282 -0.040193 0.012103 -0.018276 25.692900 -40.985400 0.000008 0.000006 -3.351120 -8.927160 -57.287100 -11.754300 -0.000006 -0.000006 -0.004423 0.223437 -7.504750
0.000000 0.000000 0.000000 0.000000 0.000000 -0.000000 190.549000 89.759800 -111.522000 84.329500 0.266001 -4.218520 15.735700 0.000005 -0.000001 34.781000 87.752900 -31.324400 8.984550 -0.406207 -0.000000 -5.076690 -4.074240 6.740990 16.377300 -0.000001 -0.000001 1.438050 3.538290 -0.675252 6.456720 -0.000001 -0.000000 8.452220 6.564470 -6.183710 12.994200 -0.242716 4.980390 -92.683700 8.729530 -72.836800 5.348090 -0.000007 -0.000001 -75.955100 -5.644460 1.217620 24.328600 0.000019 0.000005 21.235100 26.197000 -41.345400 22.291600 -0.000001 0.000005 51.606300 4.307880 19.668700 12.994500 -0.242716 -4.980390 89.397700 1.819490 -71.680500 -5.348130 -0.000001 -0.000004 -64.876500 -5.747480 8.548840 -24.328900 0.000322 -0.000009 0.292781 2.782950 -6.026750 -22.291500 -0.000108 -0.000004 46.475600 5.346250 -1.265990 -2.192480 -6.469440 -0.000000 -172.081000 -3.765840 4.626840 39.081100 -0.000007 -0.000012 0.037232 -0.050677 36.303500 40.985400 -0.000006 -0.000013 -1.543900 17.193400 -48.157400 11.754300 -0.000000 0.000003 -0.194128 -0.635271 -43.762200 -2.192510 6.469440 -0.000001 -172.275000 -9.711370 148.677000 -39.081100 -0.002282 -0.040193 0.008905 -0.009311 31.051300 -40.985400 0.000008 0.000006 -3.236280 -9.596540 -62.116600 -11.754300 -0.000006 -0.000006 -0.006530 0.243244 -6.697240
0.000000 0.000000 0.000000 0.000000 0.000000 -0.000000 190.040000 89.487600 -107.259000 83.534000 0.909147 -3.079070 15.735700 0.000005 -0.000001 36.977100 87.568400 -33.296800 8.984550 -0.406207 -0.000000 -4.699380 -4.281310 7.192980 16.377300 -0.000001 -0.000001 1.369710 3.404320 -0.675492 6.456720 -0.000001 -0.000000 8.503120 6.399060 -6.117510 12.994200 -0.242716 4.980390 -92.629000 8.625530 -72.977200 5.348090 -0.000007 -0.000001 -76.544900 -3.223790 2.331540 24.328600 0.000019 0.000005 14.275700 26.292100 -29.867300 22.291600 -0.000001 0.000005 50.892500 4.346800 19.063800 12.994500 -0.242716 -4.980390 89.250600 2.265940 -71.694100 -5.348130 -0.000001 -0.000004 -66.756000 -3.346180 5.849650 -24.328900 0.000322 -0.000009 0.198947 2.144820 -5.328060 -22.291500 -0.000108 -0.000004 45.825600 5.346840 -1.283360 -2.192480 -6.469440 -0.000000 -170.440000 -2.657780 0.361543 39.081100 -0.000007 -0.000012 0.086800 -0.085153 45.547800 40.985400 -0.000006 -0.000013 -6.688590 16.951800 -36.527600 11.754300 -0.000000 0.000003 -0.079573 -0.390760 -32.798300 -2.192510 6.469440 -0.000001 -170.274000 -9.124890 150.854000 -39.081100 -0.002282 -0.040193 0.009490 -0.008839 35.044400 -40.985400 0.000008 0.000006 -2.489040 -9.660220 -66.776700 -11.754300 -0.000006 -0.000006 -0.007840 0.254385 -6.242470
0.000000 0.000000 0.000000 0.000000 0.000000 -0.000000 189.595000 89.138000 -103.502000 82.760500 1.745550 -1.817580 15.735700 0.000005 -0.000001 44.024000 87.430900 -40.179100 8.984550 -0.406207 -0.000000 -4.051440 -4.088060 7.551590 16.377300 -0.000001 -0.000001 1.030610 2.846080 -0.413224 6.456720 -0.000001 -0.000000 8.620230 5.759450 -6.093880 12.994200 -0.242716 4.980390 -92.592700 8.656080 -73.254800 5.348090 -0.000007 -0.000001 -77.278500 -2.004820 2.849820 24.328600 0.000019 0.000005 8.573570 25.444200 -19.329800 22.291600 -0.000001 0.000005 49.600700 4.375670 18.607700 12.994500 -0.242716 -4.980390 89.071400 2.786220 -71.559500 -5.348130 -0.000001 -0.000004 -68.707700 -0.722348 3.000020 -24.328900 0.000322 -0.000009 0.127803 1.271220 -5.792580 -22.291500 -0.000108 -0.000004 45.193400 5.356320 -1.568680 -2.192480 -6.469440 -0.000000 -168.712000 -0.975637 -5.692940 39.081100 -0.000007 -0.000012 0.221167 -0.156985 54.632200 40.985400 -0.000006 -0.000013 -14.468700 13.337700 -23.347100 11.754300 -0.000000 0.000003 0.002088 0.050228 -14.539400 -2.192510 6.469440 -0.000001 -168.419000 -8.140380 153.388000 -39.081100 -0.002282 -0.040193 0.012529 -0.011898 37.848000 -40.985400 0.000008 0.000006 -2.068700 -9.666880 -70.762700 -11.754300 -0.000006 -0.000006 -0.009046 0.264032 -5.848370
0.000000 0.000000 0.000000 0.000000 0.000000 -0.000000 189.321000 89.150800 -100.034000 82.295400 2.139010 -0.748888 15.735700 0.000005 -0.000001 54.269600 87.336700 -50.439700 8.984550 -0.406207 -0.000000 -3.316960 -3.479090 7.562720 16.377300 -0.000001 -0.000001 0.768544 2.339220 -0.035788 6.456720 -0.000001 -0.000000 8.491860 4.932180 -5.895380 12.994200 -0.242716 4.980390 -92.453000 8.205030 -73.291900 5.348090 -0.000007 -0.000001 -78.006200 -3.444560 3.918710 24.328600 0.000019 0.000005 5.415240 24.895100 -12.690400 22.291600 -0.000001 0.000005 48.477900 4.382800 18.496700 12.994500 -0.242716 -4.980390 89.010600 2.974490 -71.592000 -5.348130 -0.000001 -0.000004 -70.940600 3.115100 0.036846 -24.328900 0.000322 -0.000009 0.081098 0.629558 -7.457910 -22.291500 -0.000108 -0.000004 44.660600 5.374850 -2.137210 -2.192480 -6.469440 -0.000000 -167.846000 -0.018296 -11.447100 39.081100 -0.000007 -0.000012 0.300128 -0.154743 62.724200 40.985400 -0.000006 -0.000013 -15.335400 11.318200 -25.199600 11.754300 -0.000000 0.000003 0.001973 0.045683 -14.723700 -2.192510 6.469440 -0.000001 -167.156000 -7.848320 156.654000 -39.081100 -0.002282 -0.040193 0.014827 -0.014495 38.535800 -40.985400 0.000008 0.000006 -1.841240 -10.135100 -73.446500 -11.754300 -0.000006 -0.000006 -0.008955 0.263326 -5.877190
